<svg width="44" height="64" viewBox="0 0 44 64" fill="none" xmlns="http://www.w3.org/2000/svg">
<g clip-path="url(#clip0_316_332)">
<path d="M22.0259 31.9999C22.0259 29.1709 23.1497 26.4578 25.1501 24.4574C27.1505 22.4571 29.8636 21.3333 32.6925 21.3333C35.5215 21.3333 38.2346 22.4571 40.235 24.4574C42.2354 26.4578 43.3592 29.1709 43.3592 31.9999C43.3592 34.8289 42.2354 37.542 40.235 39.5424C38.2346 41.5428 35.5215 42.6666 32.6925 42.6666C29.8636 42.6666 27.1505 41.5428 25.1501 39.5424C23.1497 37.542 22.0259 34.8289 22.0259 31.9999Z" fill="#1ABCFE"/>
<path d="M0.692627 53.3334C0.692627 50.5044 1.81643 47.7913 3.81682 45.7909C5.81721 43.7906 8.53032 42.6667 11.3593 42.6667H22.026V53.3334C22.026 56.1624 20.9022 58.8755 18.9018 60.8759C16.9014 62.8763 14.1883 64.0001 11.3593 64.0001C8.53032 64.0001 5.81721 62.8763 3.81682 60.8759C1.81643 58.8755 0.692627 56.1624 0.692627 53.3334Z" fill="#0ACF83"/>
<path d="M22.0259 0V21.3333H32.6925C35.5215 21.3333 38.2346 20.2095 40.235 18.2091C42.2354 16.2087 43.3592 13.4956 43.3592 10.6667C43.3592 7.83769 42.2354 5.12458 40.235 3.12419C38.2346 1.12381 35.5215 0 32.6925 0L22.0259 0Z" fill="#FF7262"/>
<path d="M0.692627 10.6667C0.692627 13.4956 1.81643 16.2087 3.81682 18.2091C5.81721 20.2095 8.53032 21.3333 11.3593 21.3333H22.026V0H11.3593C8.53032 0 5.81721 1.12381 3.81682 3.12419C1.81643 5.12458 0.692627 7.83769 0.692627 10.6667Z" fill="#F24E1E"/>
<path d="M0.692627 31.9999C0.692627 34.8289 1.81643 37.542 3.81682 39.5424C5.81721 41.5428 8.53032 42.6666 11.3593 42.6666H22.026V21.3333H11.3593C8.53032 21.3333 5.81721 22.4571 3.81682 24.4574C1.81643 26.4578 0.692627 29.1709 0.692627 31.9999Z" fill="#A259FF"/>
</g>
<defs>
<clipPath id="clip0_316_332">
<rect width="42.6667" height="64" fill="white" transform="translate(0.692627)"/>
</clipPath>
</defs>
</svg>
